<svg width="440" height="67" viewBox="0 0 440 67" fill="none" xmlns="http://www.w3.org/2000/svg">
<path d="M77.5 0.5C94.5 0.499991 104.143 3.00001 113 18.5C119 29 123.5 37 133.5 50.8096C141 59.9999 150.987 64 164.5 64H275.5C289.013 64 299 59.9999 306.5 50.8096C316.5 37 321 29 327 18.5C335.857 3.00001 345 0.499991 362.5 0.5H444V66H-4V0.5H77.5Z" fill="url(#paint0_linear_24_963)"/>
<path d="M77.5 0.5V1V0.5ZM113 18.5L113.434 18.2519L113 18.5ZM133.5 50.8096L133.095 51.1028C133.101 51.1106 133.107 51.1182 133.113 51.1257L133.5 50.8096ZM306.5 50.8096L306.887 51.1257C306.893 51.1182 306.899 51.1106 306.905 51.1028L306.5 50.8096ZM327 18.5L326.566 18.2519L327 18.5ZM362.5 0.5V1V0.5ZM444 0.5H444.5C444.5 0.223858 444.276 0 444 0V0.5ZM444 66V66.5C444.276 66.5 444.5 66.2761 444.5 66H444ZM-4 66H-4.5C-4.5 66.2761 -4.27614 66.5 -4 66.5V66ZM-4 0.5V0C-4.27614 0 -4.5 0.223858 -4.5 0.5L-4 0.5ZM77.5 0.5V1C85.9888 0.999995 92.5575 1.62725 98.0968 4.14276C103.617 6.64938 108.172 11.0592 112.566 18.7481L113 18.5L113.434 18.2519C108.971 10.4408 104.276 5.85062 98.5103 3.23224C92.764 0.622747 86.0112 -4.70877e-06 77.5 0V0.5ZM113 18.5L112.566 18.7481C118.568 29.2516 123.079 37.2707 133.095 51.1028L133.5 50.8096L133.905 50.5163C123.921 36.7293 119.432 28.7484 113.434 18.2519L113 18.5ZM133.5 50.8096L133.113 51.1257C140.728 60.4575 150.872 64.5 164.5 64.5V64V63.5C151.101 63.5 141.272 59.5424 133.887 50.4934L133.5 50.8096ZM164.5 64V64.5H275.5V64V63.5H164.5V64ZM275.5 64V64.5C289.128 64.5 299.272 60.4575 306.887 51.1257L306.5 50.8096L306.113 50.4934C298.728 59.5424 288.899 63.5 275.5 63.5V64ZM306.5 50.8096L306.905 51.1028C316.921 37.2707 321.432 29.2516 327.434 18.7481L327 18.5L326.566 18.2519C320.568 28.7484 316.079 36.7293 306.095 50.5163L306.5 50.8096ZM327 18.5L327.434 18.7481C331.831 11.0544 336.263 6.64681 341.718 4.14188C347.193 1.62771 353.759 0.999995 362.5 1V0.5V0C353.741 -4.70877e-06 346.986 0.622287 341.3 3.23312C335.595 5.85319 331.027 10.4457 326.566 18.2519L327 18.5ZM362.5 0.5V1H444V0.5V0H362.5V0.5ZM444 0.5H443.5V66H444H444.5V0.5H444ZM444 66V65.5H-4V66V66.5H444V66ZM-4 66H-3.5V0.5H-4H-4.5V66H-4ZM-4 0.5V1H77.5V0.5V0H-4V0.5Z" fill="url(#paint1_linear_24_963)" fill-opacity="0.5"/>
<defs>
<linearGradient id="paint0_linear_24_963" x1="220" y1="0.5" x2="220" y2="66" gradientUnits="userSpaceOnUse">
<stop stop-color="#13243E"/>
<stop offset="0.495" stop-color="#1D3562"/>
<stop offset="1" stop-color="#09133E"/>
</linearGradient>
<linearGradient id="paint1_linear_24_963" x1="220" y1="0.5" x2="220" y2="66" gradientUnits="userSpaceOnUse">
<stop stop-color="#253650"/>
<stop offset="0.21" stop-color="white" stop-opacity="0.2"/>
<stop offset="1" stop-color="#09133E"/>
</linearGradient>
</defs>
</svg>
