<svg width="28" height="28" viewBox="0 0 28 28" fill="none" xmlns="http://www.w3.org/2000/svg">
<g filter="url(#filter0_d_24_17)">
<path d="M25.9763 8.6375C25.7163 6.135 23.6362 4.25 21.1175 4.25H6.8825C4.36375 4.25 2.28375 6.135 2.02375 8.6375L1 18.9563C1.04875 21.605 3.21 23.75 5.875 23.75C6.76875 23.75 7.5 23.0187 7.5 22.125C7.5 20.3375 8.9625 18.875 10.75 18.875H17.25C19.0375 18.875 20.5 20.3375 20.5 22.125C20.5 23.0187 21.2313 23.75 22.125 23.75C24.8062 23.75 27 21.5562 27 18.875L25.9763 8.6375ZM11.5625 13.1875H10.75V14C10.75 14.8938 10.0188 15.625 9.125 15.625C8.23125 15.625 7.5 14.8938 7.5 14V13.1875H6.6875C5.79375 13.1875 5.0625 12.4563 5.0625 11.5625C5.0625 10.6687 5.79375 9.9375 6.6875 9.9375H7.5V9.125C7.5 8.23125 8.23125 7.5 9.125 7.5C10.0188 7.5 10.75 8.23125 10.75 9.125V9.9375H11.5625C12.4563 9.9375 13.1875 10.6687 13.1875 11.5625C13.1875 12.4563 12.4563 13.1875 11.5625 13.1875ZM18.875 15.625C17.9813 15.625 17.25 14.8938 17.25 14C17.25 13.1062 17.9813 12.375 18.875 12.375C19.7687 12.375 20.5 13.1062 20.5 14C20.5 14.8938 19.7687 15.625 18.875 15.625ZM22.125 10.75C21.2313 10.75 20.5 10.0188 20.5 9.125C20.5 8.23125 21.2313 7.5 22.125 7.5C23.0187 7.5 23.75 8.23125 23.75 9.125C23.75 10.0188 23.0187 10.75 22.125 10.75Z" fill="white"/>
</g>
<defs>
<filter id="filter0_d_24_17" x="0" y="4.25" width="28" height="21.5" filterUnits="userSpaceOnUse" color-interpolation-filters="sRGB">
<feFlood flood-opacity="0" result="BackgroundImageFix"/>
<feColorMatrix in="SourceAlpha" type="matrix" values="0 0 0 0 0 0 0 0 0 0 0 0 0 0 0 0 0 0 127 0" result="hardAlpha"/>
<feOffset dy="1"/>
<feGaussianBlur stdDeviation="0.5"/>
<feComposite in2="hardAlpha" operator="out"/>
<feColorMatrix type="matrix" values="0 0 0 0 0 0 0 0 0 0 0 0 0 0 0 0 0 0 0.15 0"/>
<feBlend mode="normal" in2="BackgroundImageFix" result="effect1_dropShadow_24_17"/>
<feBlend mode="normal" in="SourceGraphic" in2="effect1_dropShadow_24_17" result="shape"/>
</filter>
</defs>
</svg>
