<svg width="28" height="28" viewBox="0 0 28 28" fill="none" xmlns="http://www.w3.org/2000/svg">
<g clip-path="url(#clip0_24_3)">
<g filter="url(#filter0_d_24_3)">
<path d="M20.9601 7.99291V3.26025H15.9231L20.9601 7.99291Z" fill="white"/>
<path d="M8.20117 8.99207H19.7987L13.9999 3.5437L8.20117 8.99207Z" fill="white"/>
<path d="M20.5576 10.5156H7.44238L14 25.5174L20.5576 10.5156Z" fill="white"/>
<path d="M7.03979 7.99291L12.0768 3.26025H7.03979V7.99291Z" fill="white"/>
<path d="M5.51638 8.99225V4.40771L1.16504 8.99225H5.51638Z" fill="white"/>
<path d="M22.4836 8.99225H26.835L22.4836 4.40771V8.99225Z" fill="white"/>
<path d="M22.2202 10.5156L16.8718 22.751L27 10.5156H22.2202Z" fill="white"/>
<path d="M5.77978 10.5156H1L11.1282 22.751L5.77978 10.5156Z" fill="white"/>
</g>
</g>
<defs>
<filter id="filter0_d_24_3" x="0" y="3.26025" width="28" height="24.2571" filterUnits="userSpaceOnUse" color-interpolation-filters="sRGB">
<feFlood flood-opacity="0" result="BackgroundImageFix"/>
<feColorMatrix in="SourceAlpha" type="matrix" values="0 0 0 0 0 0 0 0 0 0 0 0 0 0 0 0 0 0 127 0" result="hardAlpha"/>
<feOffset dy="1"/>
<feGaussianBlur stdDeviation="0.5"/>
<feComposite in2="hardAlpha" operator="out"/>
<feColorMatrix type="matrix" values="0 0 0 0 0 0 0 0 0 0 0 0 0 0 0 0 0 0 0.15 0"/>
<feBlend mode="normal" in2="BackgroundImageFix" result="effect1_dropShadow_24_3"/>
<feBlend mode="normal" in="SourceGraphic" in2="effect1_dropShadow_24_3" result="shape"/>
</filter>
<clipPath id="clip0_24_3">
<rect width="26" height="26" fill="white" transform="translate(1 1.38892)"/>
</clipPath>
</defs>
</svg>
